<svg width="512" height="512" viewBox="0 0 512 512" xmlns="http://www.w3.org/2000/svg">
  <rect x="0" y="0" width="512" height="512" fill="#020617"/>

  <rect x="64" y="256" width="128" height="128" fill="#312e81"/>
  <rect x="128" y="192" width="128" height="128" fill="#312e81"/>
  <rect x="192" y="128" width="128" height="128" fill="#312e81"/>
  <rect x="96" y="352" width="96" height="96" fill="#1e1b4b"/> <rect x="128" y="256" width="96" height="96" fill="#7c3aed"/>
  <rect x="192" y="192" width="96" height="96" fill="#9333ea"/>
  <rect x="256" y="128" width="96" height="96" fill="#a855f7"/>
  
  <rect x="320" y="96" width="64" height="64" fill="#7c3aed" fill-opacity="0.8"/>
  <rect x="64" y="224" width="64" height="64" fill="#7c3aed" fill-opacity="0.6"/>

  <rect x="160" y="288" width="64" height="64" fill="#2563eb"/>
  <rect x="224" y="224" width="64" height="64" fill="#0ea5e9"/>
  <rect x="256" y="192" width="64" height="64" fill="#06b6d4"/>

  <rect x="192" y="256" width="64" height="64" fill="#e0f2fe"/> 
  <rect x="208" y="272" width="32" height="32" fill="#ffffff"/>

  <rect x="384" y="64" width="32" height="32" fill="#d8b4fe"/>
  <rect x="352" y="48" width="32" height="32" fill="#a855f7" fill-opacity="0.5"/>
  <rect x="448" y="96" width="16" height="16" fill="#e879f9" fill-opacity="0.7"/>

  <rect x="32" y="384" width="32" height="32" fill="#1e1b4b"/>
  <rect x="64" y="448" width="32" height="32" fill="#312e81" fill-opacity="0.5"/>
  
  <rect x="352" y="224" width="32" height="32" fill="#22d3ee" fill-opacity="0.8"/>
  <rect x="320" y="320" width="16" height="16" fill="#2563eb"/>
  <rect x="128" y="96" width="32" height="32" fill="#4c1d95" fill-opacity="0.4"/>

</svg>